<svg width="67" height="17" viewBox="0 0 100 26" fill="none" xmlns="http://www.w3.org/2000/svg">
    <path fill-rule="evenodd" clip-rule="evenodd" d="M26.079 12.57a6.274 6.274 0 00-1.85-4.465 6.274 6.274 0 00-4.464-1.85H6.255V18.885h13.51a6.274 6.274 0 004.465-1.85 6.273 6.273 0 001.849-4.464zm6.256 0c0 6.942-5.628 12.57-12.57 12.57H0V0h19.765c6.942 0 12.57 5.628 12.57 12.57zm65.37-.82a7.805 7.805 0 00-2.49-1.679 7.786 7.786 0 00-3.051-.617v.01H75.532a1.613 1.613 0 01-1.611-1.611c0-.89.723-1.612 1.611-1.612h19.713a3.114 3.114 0 000-6.226H75.532a7.795 7.795 0 00-3.052.617 7.808 7.808 0 00-2.49 1.678 7.813 7.813 0 00-2.296 5.543c0 1.056.208 2.083.618 3.052.395.933.96 1.771 1.678 2.49a7.814 7.814 0 005.543 2.296h16.631v-.01c.888 0 1.61.721 1.61 1.609 0 .887-.722 1.61-1.61 1.61H70.808a3.113 3.113 0 100 6.226h21.356a7.807 7.807 0 005.54-2.295A7.807 7.807 0 00100 17.29a7.809 7.809 0 00-2.295-5.54zM59.897 0h6.226v22.012a3.114 3.114 0 01-5.314 2.202L40.044 9.204V25.14h-6.226V3.128A3.113 3.113 0 0139.132.926l20.765 15.01V0z" fill="#fff"/>
</svg>